/* XPM */
static char *_583339519303[] = {
/* columns rows colors chars-per-pixel */
"128 128 58 1 ",
"  c #131313",
". c gray9",
"X c #1B1B1B",
"o c gray12",
"O c #3A3319",
"+ c #232323",
"@ c gray15",
"# c #282828",
"$ c #282F28",
"% c #2C2C2C",
"& c #2C2C2D",
"* c #2E2C2E",
"= c #322D22",
"- c #302D2D",
"; c #263328",
": c #3D3626",
"> c #2D3030",
", c #2C3031",
"< c #2F3B3C",
"1 c #2F3F3F",
"2 c #303032",
"3 c gray20",
"4 c #323737",
"5 c #35353B",
"6 c #3A3A3A",
"7 c #453C15",
"8 c #453F2A",
"9 c #514512",
"0 c #68570B",
"q c #746107",
"w c #53472C",
"e c #3D3D43",
"r c #434343",
"t c #4E4E4E",
"y c #444450",
"u c #4B4B55",
"i c gray34",
"p c #555560",
"a c #5E5E6D",
"s c gray39",
"d c gray43",
"f c #676774",
"g c #777777",
"h c #72727F",
"j c #7A7A89",
"k c #579A9A",
"l c #848484",
"z c #878795",
"x c #939393",
"c c #91919F",
"v c #86BBBB",
"b c #A2A2A2",
"n c #A5A5AE",
"m c #AEAEAE",
"M c #B9B9B9",
"N c #BCBCC7",
"B c #C5C5C5",
"V c #CDCDE0",
/* pixels */
"ryrrrryyreMMl5eee5egmgeeeerexxeeeeeezMleeeeeeee55522m@eeyyeryryerryrrrryyreMMl5eee5egmgeeeerexxeeeeeezMleeeeeeee55522m+eeyyeryry",
"uuyyryuuyyMMxyyyyryxMyyuuyyuMMyyuyyyxMMyyyyyyureee4zM#eeuyyyyyyyyuuyyryuuyyMMxyyyyryxMyyuuyyuMMyyuyyyxMMyyyyyyureee4zM#reuyyyyyy",
"iuuyyyyuyeMMdeeerrrgM6err666Mne6eeeeeMMeee6eere4366Mz#reyyyyyyyyyiuuyyyyuyeMMdeeerrrgM6err666Mne6eeeeeMMeee6eere4366Mz#reyyyyyyy",
"uiuyryyuyeMMe6e66eeeMereereemxeeeee6eMMee6exrr644e3M>#reyuyyyyryyuiuyryyuyeMMe6e66eeeMereereemxeeeee6eMMee6exrr644e3M,#reyuyyyyr",
"yuuyyyyyylMMiyuuuyxuMuiuuuxlnguuiuuuuMMyuudxiur46r4M>#eeyyyyyyryyyuuyyyyyylMMiyuuuyxuMuiuuuxlnguuiuuuuMMyuudxiur46r4M,#eeyyyyyyr",
"yyyyyyyyymMMryyyyiNbMiuuyuMxniiuiuuiuMxuuuuuiuyy364M>#eeyyyyyyyyyyyyyyyyyymMMryyyyiNbMiuuyuMxniiuiuuiuMxuuuuuiuyy364M,#eeyyyyyyy",
"yyyyyryyumMMereyyxBBMyyyyxMlmuulzxyyyMrrryyuyy6eee3z>#eeyyyyyyyyyyyyyyryyumMMereyyxBBMyyyyxMlmuulzxyyyMrrryyuyy6eee3z>@eeyyyyyyy",
"ryyryyyuenMMe6edxMBBMxxxxMzdmyunnMxyyMryyrzyyusgee32,#eeyyyyyyyyrryyryyyuenMMe6edxMBBMxxxxMzdmyunnMxyyMryyrzyyusgee422#eeyyyyyyy",
"ee6eeeetonMMl##sMzNNMzlMMn3iMcnMmMMczM33cbmzzxisl#l#++6rreeeeeeeeee6eeeetonMMl##sMzNNMzlMMn2iMcnMmMMczM33cbmzzxisl#l@@@6rreeeeee",
"eee6eeetomMMn-22m%MMM@oMMx&yNBVMmMMBmM&&BVMmxlX nlmo#3eeeeeeeeeeeeee6eeetomMMn&22m*MMM@XMMx*yNBVMmMMBmM&&BVMmxlX nlmo#2eeeeeeeee",
"eeeeeeyr#mMMn525n5MMM,@Mmd51BVVMnnMVmx55VBMmg,@omMMX&5eeeeeeeeeeeeeeeeeyr#mMMn535n5MMM,@Mmd51BVVMnnMVmx55VBMmg,#omMMX%5eeeeeeeee",
"yrrtuytt&mMmxeeexyMMM53MmyyyVVBMxxmBMyyyVNmmy422MMMX&5eerrryrtyryyrrtuytt&mMmxeeexyMMM52MmyyyVVBMxxmBMyyyVNmmy42*MMMX%5eerrryrty",
"yyyyuyut2mMmguyugeMMM65xm656VVNngdmNMeeeVMmmue66MMlo3eyeryyrytyyyyyyyuyuu2mMmguyugeMMM65xm656VVNngdmNMeeeVMmmue66MMlo2eyeryyryty",
"rrtyttuuemMmppppiabMMaasmtetBVMxstmmMaaaBMmnpr6emMoX&5eerttrrryturrtyttuuemMmpppppabMMaasmtetBVMxstmmMaaaBMmnpr6emMoX%5eerttrrry",
"yrrtttrurmMmsssssddMMdddmtetMBmgdtmnbfffNMmzft56mMoX&5e6ytttrrytyyrrtttrurmMmsssssddMMdddmtetMBmgdtmnbfffNMmzft36mMoX%5e6ytttrry",
"yrttrryienmmpppppiiMxissmterxNmsdumxafppNMmsft4emMoX&5eerttttyytyyrttrryirnmmpppppiiMxissmterxNmsdtmxafppNMmaft6emMoX%5eerttttyy",
"yryuryuu6lmmiiiiiipMiissxtetxMmsdtmdafapBMmaftrymM@X&6eeyetyuyytyyrytryuu6lmmiiiiiipMiissxtetxMmsdumdafapBMmsftrymM#X%6eeyetyuyy",
"yuyyyyuu6rmmiiiipasMasdgdsttbMmsdumeafaiBMmaftrpmM@X&6eeyyyyyyyyyyuyyyyuu6rmmiiiipasMasdgdsttbMmsdtm6afapBMmaftrpmM#X%6eeyyyyyyy",
"yyyyrruu6rmmipipssdMbzfhfsrxMMMxxxMxafaaNMmaftrpmM@X&6eeyyiyyyyiyyyyyrruu6rmmipipssdMbxfhfsrxMMMxxxMxsfaaNMmaftrpmM@X%6eeyyiyyyy",
"yyyyrryu6ymmsspssxbMMMcjjslmMMMmnMMMcxffMMmaftepmm@X&6eeyuuyuyyuyyyyyrryu6ymmsspssxbMMMchjslmMMMmnMMMczffMMmafuepmm@o&6eeyuuyuyy",
"yyyyyryu6ymmssiixmMMMMxbndmmnmMnmMMMMnfjMMmaauepmm@X&6e6yyyyyuyyyyyyyyryu6ymmssiixmMMMMxbndmmnmMnmMMMMnjjMMnsauepmm@X%6e6yyyyyuy",
"yyyyyyui3rmniizxmMMMbbucNnNMnmbxmnbMNmpiMMmypr6ymmoX&5eeryuyyyuuyyyyyyyui2rmniizxmMMMbbucNnNMnmbxmnbMNniiMMmypr6ymmoX%5eeryuyyyu",
"yyyyyyuu-3mxr6gMMNMxffaaNBBBnmffmljMBMjfMmmyprermnoX&6e6yuuyyyuuyyyyyyyuu23mxr6gMMNMxffaaNBBBnmffmljMBMjfMmmyprermnoX%5e6yuuyyyu",
"yyyyyyuy#&ms62-MNBxuuuyyxBNBzmyymyeMVMbeMmmyprrymg@X@466yyuyyuyuyyyyyyyuy#&ms62-MNBxuuuyyxBNBzmyymyyMVMbeMmmyprrymg@X#546yyuyyuy",
"yryuyyyu-2m5e3&lxVeeyuyeeNMN6m66n66MVMmyMMmyprrtm2#+26e6yyyyuyyyuyryuyyyu**m5e3&lxVeeyuyeeNMN6m63n66MVMmyMMmyprrum*#+*6e6yyyyuyy",
"yryyyyuue3m6tr2@*VeyuuyxevMM6ne6x66MVNxexMmeu6erm,@o&6eeyyyuuyyyyyryyyyuue3m6tr2#*VeyuuyxevMM6ne6x66MVNxexMmeu6erm,@o%6eeyyyuuyy",
"yyyyyyuuu6nrtt3@,ByyipgMidMMdvrikdivVBeyuMm5e536m@oX&6eeyyuuyyyuyyyyyyyuuu6nrtt3@2ByyppgMidMMdvrikdivVBeyuMm5e546m@oX*6eeyyuuyyy",
"yyyuryuuu6x6tr3@2NyyupdM*-mM-lr-----BByyuMm*2,>2n@oX&6eeuuuyyyyuuyyyuryuuu6x6tr3@2NyyupdM2*mM-lr-----BByyuMm-2,,2n@oX,6eeuuuyyyy",
"ryyyyyuuu6s6ur*@2Mxyussm--nM-dr-----cNeetMn2353>x@oX&6e6uyyyuyyyyryyyyyuuu6s6tr2@2Mxytssm--nM-dr-----cNeetMn2352>x@oX,6e6uyyyuyy",
"yyuyuyuiu636tr2@2Mxyupin--vM-ir-----iMyetmx6rte>sooX&6eeyyyyyyuyyyyuyuyuiu636tr2@2Mxyupin--vM-ir-----iMyetmx6rue>sooX%6eeyyyyyyu",
"yuuuyyiiu636tr2#2Meetisv---M-sr-----dxeetmdrtir>,ooX&6erryyyyryyuyuuuyyiiu636tr2@2Meetisv---M-sr-----dxeetmdrtir>>ooX%6erryyyyry",
"yyuuyyiuu636tr2#&MyytiirriiMiirriiiii6eeuMyruat>,ooX&6eeryyyyyyyuyyuuyyiuu636tr2@%MyytiirriiMiirriiiii6eeuMyrust>>ooX%6eeryyyyyy",
"yyyuuyuuu636tr>@%xeyupgriddvdgriddiigeeeuMyeuau3>ooX&6eeyyyyyeryuyyyuuyuuu636tr*#,xeyupgriddvdgriddiigeeeuMyeuat3,ooX%6eeyyyyyer",
"yyyuuyuuu636te-+%6eyupdl&----dr-----d6eyuMy6ust3,ooX&6eeyuyyryyyuyyyuuyuuu636ue*+*6eyupdl-----dr-----d6eyuMy6uat3,ooX%6eeyuyyryy",
"yuyyyuuyu636r6@+%6eyipsr-----sr-----s6eeuMy6uat,4ooo3eyeyyerryyeyyuyyyuuyu636r6@+%6eyipsr-----sr-----s6eeuMy6tat,4ooo3eyeyyerryy",
"uyyyyyuue625e2@+%5yyuuir-----ir-----ieeytmy6ust,6ooX&6eeuryyrryyyuyyyyyuue625e2#+%5yyuuir-----ir-----ieeytmy6tat-6ooX%6eeuryyrry",
"yyyuyyuu5656r5*+#3eyupsd-----sr-----seeyumyeuau-6ooX&6eeyyyyyyyyuyyyuyyuu5656r52+#2eyuisd-----sr-----seeyumyeuat,6ooX%6eeyyyyyyy",
"yyyyyryyeyuuiy2##3eeyudr-----dr-----deyyumy5yir>6ooX&5eeyyyyyyyyyyyyyyryyeyuupy2@#2eeyudr-----dr-----deyyumy5ypr,6ooX%5eeyyyyyyy",
"yuyyyruuyuppau5#>6eeuuiriiiiiiridiiiieeeume,eye>6ooX&5eeyyyryyyyyyuyyyruuyuipau5@>6eeuuiriiiiiiridiiiieeeume2eye,6+oX%5eeyyyryyy",
"uyyyyyuueyuupy2#*4eyupgridiidiridiidg6eeum5%355>4ooX&5eeyyyyyyyyyuyyyyyuueyuuiy2#&5eyuigridiidiridiidg6eeum5#355-4ooX%5eeyyyyyyy",
"yyyyryyu5eyyue3#%4eetidr-----dr-----deeytm6&5ee65ooX@3eeyyyyrrryyyyyyryyu4eyyue2#%4eetidr-----dr-----deeytm6&5ee65ooX#2eeyyyyrrr",
"yyyyyyuueyuuir5#*36eupir-----ir-----ieeytmyeyuite&@X&5eeyyryyrrryyyyyyyuueyuupr5@%36eupir-----ir-----ieeytmyeyupue%@X*5eeyyryyrr",
"yyryyruuruiist5@*3eyupir-----ir-----i6eetmuyupapy3>o&5eeyyrryryryyyryyruurtiisi5@%2eyupir-----ir-----i6eetmuyupaiy3,o%5eeyyrryry",
"rryryyuyeyuupr5@&4eyuisr-----sr-----seyytnteyuppu5>o&5eeyyyyyyyyrrryryyuyeyuupr5@%4eyupsr-----sr-----seyytnteyuppu5*o,5eeyyyyyyy",
"yyyyyyuu6rttir2#&5yyupir-----id-----ieyytlyeyuppy6>o&5eruyyyyyyyyyyyyyyuu6rttir3#&5yyupir-----id-----ieyytlyeyuppy6,o%5eruyyyyyy",
"yyyyyyuu6rttir2@&4eetptriiiiitiiiiiiteeytpyeyuppy6>o&5eriyryyyuryyyyyyyuu6rttir2#&4eetptriiiiitiiiiiiteeytpyeyuppy6,o%5eriyryyyu",
"yyyyryuu6rttir2@&6yuppgriddidgriddiigeyyupteyuppu4>o&5eruyyyyyuyyyyyyryuu6rttir2+&6yuppgriddidgriddiigeyyupteyuppu4,o%5eruyyyyyu",
"uyyyyyuu6rttir2#,6yyupdl-----dr-----deyyupueyuppu4>o&5eeyuuuyyyuyuyyyyyuu6rttir2@>6yyupdl-----dr-----deyyupteyuppu4,o,5eeyuuuyyy",
"uyyyyyuu6rttir2@,6eytssr-----sr-----seyyupteyuppu2,o&5eeruyyyyryyuyyyyyuu6rttir2@>6eytssr-----sr-----seyyupteyuppu3,o%5eeruyyyyr",
"uyyyyyuu6rttir2@&3eeupir-----ir-----ieeeupteyuppy3&o&5eeyuyyryryyuyyyyyuu6rttir2@*3eeupir>----ir-----ieeeupteyuppy32+&5eeyuyyryr",
"yyuuyuyy6rttir2@,6eeupsd-----sr-----seeeupy5eyuue2#o&5eeyyyyyyyyuyyuuyuyy6rttir2@>6eeupsd-----sr-----seeeupy5eyuue2@o#5eeyyyyyyy",
"yryiuyyu6rttir2#26eetpdr-----dr-----d6eeupe25eyy6#+X&5eruyyyyrtyiyryiuyyu6rttir2@,6eetpdr-----dr-----d6eetpe,5eyy6#oX*5eruyyyyrt",
"yryuyyuu6rttir2@,6eetpiriiiiiiridiiii6eeti6#&26xczxX&5eeyyuyyyruuyryuyyuu6rttir2@>6eetpiriiiiiiridiiii6eetp6#*36xczxX,5eeyyuyyyr",
"yyruiyuu36rrt6*@,6eeupgridiidiridiidgeeeupe&2eemBBBt&5eeyyyyrryyuyyruiyuu36rrt6&@>6eeupgridiidiridiidgeeetpe*25emBBBu&5eeyyyyrry",
"yytyuyuu26rrte,#>6eeupdr-----dr-----deeeuiyeyupcVVBX&6eetyryrruryyyuyuyuu36rrte2@>6eeupdr-----dr-----deeetpyeyupcVVBX*6eetyryrru",
"yyrryyuu6rttir3@>6eetsir-----ir-----ieyyupuyupasBVN+26eerryyrryyryyrryyuu6rttir3#,6eetsir-----ir----2ieyyupuyupasBVN+26eerryyrry",
"yrryyyuueyuupr5@&4etipir-----ir-----ieyyupteyuppcBlo&5eeyryyyyryyyrryyyuueyuupr6@%4etipir-----ir-----ieyyupteyuppcBlo%5eeyryyyyr",
"rrryyyuu26rrt6*#&4eeupsr-----sr-----s6eeuuyeyuppyN#X&6eeyyrryyyryrrryyyuu36rrt62@%4eeupsr-----sr-----s6eeuuyeyuppyN+X%6eeyyrryyy",
"yryyuyuu#-zxx*#@&4eeupir-----id-----ieyyuuyeyuppyM@X&6eeyyyyyyyyyyryyuyuu@-zxx*#@*4eeuiir-----id-----ieyyuuyeyuppyM#X&6eeyyyyyyy",
"yttuyyui&2mMMzs@>6eyuuuriiiiitiiiiiiteeeuuyeyuppyM@X&6eetyuyyyruuytuuyyui&2mMMzs#26eyuuuriiiiitiiiiiiteeeuuyeyuppyM#X&6eetyuyyyr",
"utrruyiueynMMBl#3eyyyugriddidgriddiigeeetpyeyuppyM@X&6eeryyyyyyyrutrruyiueynMMBl#3eyyyugriddidgriddiigeeetpyeyuppyM#X%6eeryyyyyy",
"yrryyyuuyulcMBs#>6eeyudl-----dr-----deeetpy5eyuueM@X&5e6ryyyyyyyyyrryyyuuyulcMBs@>6eeyudl-----dr-----deeetpy5eyuueM+X%5e6ryyyyyy",
"yyyyuyuueypamN#@26e6ypsr-----sr-----seeeupr25eyy6MoX&5eeyyyyyuiyyyyyyuyuueypamN#@,6e6ypsr-----sr-----seeeupr,5eyy6MoX%5eeyyyyyui",
"yyyuyyuyeypamn#@&4e6usir-----ir-----ieeeupe&2,44>MoX&5eeyyyyuuuyuyyyuyyuyeypamn#+%5e6uair-----ir-----ieeeupe*2,44*MoX%5eeyyyyuuu",
"yuyyyyuueypamx@+&5e6tssd-----sr-----seeetse**w448MoX&5eeuuyyuyuyyyuyyyyuueypamx#+%5e6tssd&----sr-----seeetse&3854:MoX%5eeuuyyuyu",
"uuyyryuueypams@+&5e6ypdr-----dr----,deeetpy6etir8x7X&6eeuyyyyyyyyuuyyryuueypams#+*5e6ypdr*----dr-----deeetpy6rtirwx7X%6eeuyyyyyy",
"iuuyyyuueypamr@@2ee6ypiriiiiiiridiiiieeetpyrtisst87o2eeeyyyyyyyyyiuuyyyuueyiamr@@2ee6yiiriiiiiiridiiiieeetpyrtisstwOo3eeeyyyyyyy",
"uiuyryuu5eupm@@+&6yytsgridiidiridiidgeyyupyrtisit8:o&6eeyuyyyyryyuiuyryuu5eupm#@+&6yytsgridiidiridiidgeyyupyrtisiyw:X%6eeyuyyyyr",
"yuuyyyuu&2yyn#@+&6yytsdr-----dr-----deeetpy6rtitt8:X&6eeyyyyyyryyyuuyyyuu&2yyn#++&6yyusdr-----dr-----deeetpy6rtitt::X,6eeyyyyyyr",
"yyyyyyuu#&55x#++2eyupair-----ir-----i6eyupt6rtitr8:X&6eeyyyyyyyyyyyyyyyuu#&55x@++2eyupair-----ir-----i6eyupt6rtitrw:X%6eeyyyyyyy",
"yyyyyruu&255g2#+&6yyipir-----ir-----i6eeupy6rtitew:X&6eeyyyyyyyyyyyyyyruu&255g2#+&6yyipir-----ir-----i6eeupy6rtitr8:X%6eeyyyyyyy",
"ryyryyuuey66pr2@,6yyupsr-----sr-----seeytst6rtitr6&X&5eeyyyyyyyyrryyryyuuey66pr2#,6yyuisr-----sr-----seeytst6rtitr4;X%5eeyyyyyyy",
"yyyyyyuuuprrat5@*4eetsir-----id-----ieeeusu6rtitr4,X>eyyuyyyyyyyyyyyyyyuuuprrau6@*4eetsir-----id-----ireeuat6rtitr6,X,eyyuyyyyyy",
"yyyyyyuiypr5pt5@>6eetstriiiiitiiiiiiteeeupi3rtitr6,X&6eeyyryyrrryyyyyyyuiypr5pt5@>6eetsuriiiiitiiiiiiueeeuit6rtitr6,X%6eeyyryyrr",
"yyrryyuuypr5py5@>6eyipgriddidgriddiigeeeupy6rtitr6,o26eryrryyyyrryyrryyuuypr5py5@>6eyiigriddidgriddiigeeeupy6rtitr6,o26eryrryyyy",
"yryyuyuyypr5py5@*4eeuidl-----dr-----leeetpy6rtiir6,X&6eeyrryyyyryyryyuyuyypr5iy5@&4eeupdl-----dr-----leeeupy6rtiir6,X&6eeyrryyyy",
"yyyyuyuyey65py6@,6eeupsr-----sr-----deeeupy6rtiir6>o3eyeryyryyyyyyyyyuyuyey65py5#,6eeupsr-----sr-----deeetpy6rtiir6,o2eyeryyryyy",
"ryyuuyuu5r55py5@&6eeuiir-----ir----Mieyyuiy6rtitr6>X&5eeyyyrrryyuryyuuyuu5r55py5@&6eetpir-----ir----Mieyyuiy6rtitr6-X%5eeyyyrrry",
"yrryyyyuey65py5@>6yyussd-----sr----Mdeyytbt6rtitr6>X&5eeuyyyyryyyyrryyyyuey65py5@,6yytssd-----sr----Mdeyytbt6ruitr6,X%5eeuyyyyry",
"yyyyyruirir5py5@&6yyupdr-----dr---MMleyytBx6rtitr6=X&5eeyuuyyyyuyyyyyyruirir5py5#&6yyupdr-----dr---MMleyytBx6rtitr6=X,5eeyuuyyyy",
"yyyyyyuueir5iy,#&6yetpuMiiiiiiridiMMieyytBMs6rtrr4@X&6eryyuyuyyuyyyyyyyuu1ir5py,#%6yetiuMiiiiiiridiMMieyytBMs6rtrr4#X%5eryyuyuyy",
"yuyyyyuutgr5py2@2eyytsjMmdiidiridiMMbeyytNMi36rr6,+X&5eeyyyyyyyyyyuyyyyuutgr5py,#2eyyusjMmdiidiridiMMbeyytNMi36rr6>@X%5eeyyyyyyy",
"yyyyrruuixr5p,8#26eyupnmN----dr--BMMleyytMm#-3663+oX&5eeyyiyyyyiyyyyyrruuixr5p4w@*6eyupnmN----dr--BMMleyytMm#*3663+oX*4eeyyiyyyy",
"yyyyrryugnd<p5:#,6eeypmmBM---ir-MBMNfeeyunm&36rr6+oX&5eeyuuyuyyuyyyyyrryugnd5p4:@,6eeypmmBM---ir-MBMNfeeyunm*36rr6+oo&5eeyuuyuyy",
"yyyyyryuxmx5p4:+*5e6yxmMVMM--imMMNMBjueeuxmeyuiir@+o%6eeyyyyyuyyyyyyyyryuxmx5p4:+,4e6yxmMVMM--imMMNMBjueeuxmeyupir#+o&6eeyyyyyuy",
"yyyyyyuinmn5p4:+*2e4zmmNVNMMmMMMMMNVlpeeudmyuisst2#+26eeryuyyyuuyyyyyyyuinmn5p4:+*4e6zmmNVNMMmMMMMMNVlpeeudmytisst2@+26eeryuyyyu",
"yyyyyyuummmlp4:+*6eenmmBVBNMMMMMMMBBxseeutmetisiu2+o&6eeyuuyyyuuyyyyyyyuummmlp4:+%6eenmmBVBNMMMMMMMBBxseeutmetisit2+o&6eeyuuyyyu",
"yyyyyyuymmmnx4:+*6eelmmBBBNMMnMMmxnNbgeeuum5rtiir2oX&6e6yyuyyuyuyyyyyyyuymmmnx3:+%6eelmmBBBNMMnMMmxnNbgeeuum6rtitr2oX&6e6yyuyyuy",
"yryuyyyummmmMz97#556yxmMNMMMnxnmzuuMnbdyuim6rtitr*oX*6eeyyyyuyyyuyryuyyyummmmMz97%546yxmMNMMMnxnmzuuMnbdyupm6rtiur*oX%6eeyyyyuyy",
"yryyyyuummmmMMl7#eyypsmmnnmmlslmpppxmspuupl6ruite*oo%5eeyyyuuyyyyyryyyyuummmmMMl7%5yypsmmnnmmlslmpppxmspuupl6rtite*oo,5eeyyyuuyy",
"yttyyyuummmmMMN7*eeyuumllnnmyyynyeyymyeyuy626rtr6#oo%5e6eyuuyyyuyyutyyyuummmmMMN72eeyuumllnnmyyynyeyymyeyuy636rtr6#oo%5e6eyuuyyy",
"ytturyuummmmMMBx*55e52n55nnm2,4g4224l4546e5*56re6+oX%5e5ruuyyyyuuytturyuummmmMMBx,66532n55nnm2,3g4224l4546e5*56re5+oX%5e5ruuyyyy",
"rtttyyyummmmMMBBc-384>g,2mnl666324446664463&26re3ooX#365teyyuyyyyrtttyyyummmmMMBBc2464,g,2mnl666424546663463-26re3ooX#365teyytyy",
"yturtyuimmmmMMBVBc**%#+#&ml#####2222&@#&243-3lbc6ooX&5e6yreyyyueyyturtyuimmmmMMBVBc&&&@@#&ml####@2222&##&243&3lbc6ooX%5e6yreyyyu",
"yuuuyyiimmmmMMNVVBx=#+..Xm@@#@@@##,-#.X+=6rzzxBBx&oX&6erryyyyryyuyuuuyyiimmmmMMNVVBx#@@.XXm+@#@@###,&@XX+=6rzzxBBx&oX*6erryyyyry",
"yyuuyyiummmmMMNVVVBkw7+++m#%;#*##&22@+#,5rrNNiBVx3oo26eeryyyyyyyuyyuuyyiummmmMMNVVVBz87+++m@$;#%##&22#+@,5rrNNiBVx3oo*6eeryyyyyy",
"yyyuuyuummmmMMNVVVVBx7&,,m236432225e*#*erttNbibBt6XX%6eeyyyyyeryuyyyuuyuummmmMMNVVVVBx7%**m23653,225e*@&erttNbibBt6XX&6eeyyyyyer",
"yyyuuyuummmMMMNVVVVBBxl45m666666666e2*3tutiMitiNi6.X%6eeyuyyryyyuyyyuuyuummmMMMNVVVVBBxl55m666666666e2&4tttiMitiNi6.X&6eeyuyyryy",
"yuyyyuuymmmmMMNBVVVNVBNzzmrrryrrrryt626tiiiMitiMi6 o3eyeyyerryyeyyuyyyuuymmmmMMNBVVVNVBNzzmrrryrrrryt626tiiiMitiMi6 o3eyeyyerryy",
"uyyyyyulmmmMMMMNBVBMVBBNNmxttiitttiir26tiiixiiixt5 X*5eeuryyrryyyuyyyyyulmmmMMMMNBVBMVBBNNmxttiitttiir26tiiixiiixt5 X&5eeuryyrry",
"yyyuyyunmmmmMMMMNBNMBNVBBNNxbsssssssu28tiiiiiiisi6.X%5eeyyyyyyyyuyyyuyyunmmmmMMMMNBNMBNVBBNNxbssssssst26tiiiiiiisi6.X&5eeyyyyyyy",
"yyyyyrrmmmmmMMMMMNMMNMBBVBBNBxxiiisdu*euiiiiiiisi6XX*5eeyyyyyyyyyyyyyyrrmmmmmMMMMMNMMNMBBVBBNBxxiiisdt26tiiiiiiisi6XX&5eeyyyyyyy",
"yuyyyrlmmmmmMMMMMMMMMbNNBVVBVMMxxxsdt28uiiiiiiisi6oo%6eeyyyryyyyyyuyyyrlmmmmmMMMMMMMMMbNNBVVBVMMxxxsdt26tiiiiiiisi6oo&6eeyyyryyy",
"uyyyyybmmMMmmmMMMMMMmxMMNVVVBMMMMMbbxlctiiiiiiist5o+26eeyyyyyyyyyuyyyyybmmMMmmmMMMMMMmxMMNVVVBMMMMMbbxlctiiiiiiist5o+26eeyyyyyyy",
"yyyyrymmmMMnnmmMmMMMmxMMMBBBNMMMMMMMMNBxxxxxttttt5oX&6eeyyyyrrryyyyyyrymmmMMnnmmMmMMMmxMMMBBBNMMMMMMMMNBxxxxxttttt5oX*6eeyyyyrrr",
"yyyyylmmMMMllmmMmmMMmnmMMBNNmMMMMbMMMNBMMmMMxxxxteoo26eeyyryyrrryyyyyylmmMMMllmmMmmMMmnmMMBNNmMMMMbMMMNBMMmMMxxxxte+o26eeyyryyrr",
"yydddlxMNMx6rlmMMmlzmMxnMBMMmnxnxxMxMbNMMmMMMMMMxx3+,deddddryryrxyydddlxMNMx6rlmMMmlzmMxnMBMMmnxnxxMxMbNMMmMMMMMMxx3+2deddddryry",
"uuuuiuuNBxe647nMMm,6mMxlMVMMmlulybxuxuxnMmMMMMMMMMs63dyxxxxzuiiuMuuuuiuuNBxe647nMMm,6mMxlMVMMmlulybxuxuxnMmMMMMMMMMs62dyxxxxzuii",
"iuiuiiubVye4,OgmMm::MMxynBMMMuiyhNusuuulmmMmbmmmxze636ulnnnxiiiumiuiuiiubVye4,OgmMm::MMxynBMMMuiygNusuuulmmMmnmmmxze636ulnnnxiii",
"iiiiiuiiBee53,Ommm,xMMnrlNMMMusybByluur8mmMmknmle6642euuxmmiuipuxiiiiiuiiBee52,Ommm,xMMnrlNMMMusybByluuremmMnlnmle6662euuxmmiuii",
"iuiiuuiim6q00q<Mmm5NMmn4eMMMMxlxMBfllhqgmmMn6gnw24452*yuimniiupiiiuiiuuiim6q00q<Mmm5NMmn3eMMMMxlxMBfllgqgmmMnegm8<5452*yupmniiup",
"piiiiiiig7900qwMml5NMmlexMMMMxgMNn8dbnbbmMMMz4nre5w52=yyimlpiiipipiiiiiiig7900qwMml5NMmlexMMMMxgMMm5dbnbbmMMMz4nee,w6,=yyimlpiii",
"uyyyyyuu47709wwmm5eNMmeexbMMMeeMMx6uMNMnnmMBz4g6e4,e2#eerxyyyyryyuyyyyyuu47709wwmmeeNMmeexbMMMeeMMx6uMNMnnmMBz4g6e4,e2%eerxyyyyr",
"uyyyyyuy4+709t:mmryBMmerzgMMMeemmde1BVBmcbMBz46ee4>62#eeydyyryryyuyyyyyuy4+709t:mmeyBMmerzgMMMeemmde1BVBmcbMBz46ee4>62#eeydyyryr",
"yyuuyuyy4#709r:mmyeBMmeygemMMrexmeeeVVBnlzmBg46ee65523eeyyyyyyyyuyyuuyuyy4#709r:mmyeBMmeygemMMrexmeeeVVBnlzmBg46ee65523eeyyyyyyy",
"yryiuyyy4,7w7,:mmeeNMmyesexMMeedmereVVNbsfmMs56eer6523eruyyyyryyiyryiuyyy4,7w7,:mneeNMmyesexMMeedmereVVNbsfmMs56eer6523eruyyyyry",
"yryuyyuy43:777:mme6MMmeeredMmeermryeBVMleymm446eete6&3eeyyuyyyruuyryuyyuy43:777:mmeeMMmeeredMmeermryeBVMleymm446eete6%3eeyyuyyyr",
"yyruiyuye4,::7:mbe6MMmyeeeeMxeerbeeymBmaeemb66eeee65&3eeyyyyrryyuyyruiyuye4,::7:mbe8MMmyeeeeMxeerbeeymBmaeemb66eeee45,3eeyyyyrry",
"yyyyuyuye63w:#>mc4eMMmyeeeeMdreezee4xNbeeyml66eeee6423eeyyryrruryyyyyuyuye63w:#,mc5eMMmyeeeeMdreezee4xNbeeyml64eeee33,,eeyyryrru",
"yyyryyuye6,,w*>mj4eMmmyeereMeeeefe66sMce6ymseeeeee:w23eerryyrryyryyyryyuye4<,w&-mj3eMmmyeereMeeeefe66sMce6ymseeeeeeww,2eerryyrry",
"yrryyyuye6644=3ms46mmmeeeeeMereyye663mje6,m6eeeeee,,:3eeyryyyyryyyrryyyuye6644=3ms85nmmeeeeeMereyye664mje64n6eeeeee>>:3eeyryyyyr",
"rrryyyuyeee66,4mw66xMmerttemeetuyre64ms6ewn6eeeeee64:3eeyyrryyyryrrryyyuyeee6624m8eexMmerttemeetuyre64ms6ewn6eeeeee64:3eeyyrryyy",
"yyyyuyuyeeee624neeedMmereeexeeyeeee54mw4e8beeee4=y,7:5eeyyyyyyyyyyyyyuyuyeeee624neeedMmereeexeeyeeee64mw,ewbeeee4=y27:5eeyyyyyyy",
"yyyuyyutetddee6ceeeeMmeeeeedreeeeeee4mO7O6z4ree366w7:3eeyyuyyyruuyyyuyyutetddee6ceeeeMmeeeeedreeeeeee4mO77<z<ree466w7:3eeyyuyyyr",
"uyrruyiyetxxte6lerrrMn6ereeeeeee55ee4m9+=6d<eeer==w$:3eeyyyytyyyruyrruyiyetxxte6k8rrrMn6ereeeeeee44ee4m7+O5d3eeer==w@82eeyyyyuyy",
"yrryyeuueemnt6esreerMb66r66eeee6<<ee4m+79=eeeeeq==7O:3eeyyyyyyyyyyrryyeuueemnt6esrrerMb66r66eeee644re4m@77=reeeeq==77:2eeyyyyyyy",
"yteereuue6MMeeeeee6embeee6666ee6w,784m=O7:==7=677@w&23eeeyyyyyiyyyteereuue6MMeeeeee6embeee6666ee6w4Ow4m=77:==7=677#8>23eeeyyyyyi",
"yeereeuye6MN6eee565emneeeeeeeere5888;m==w,77==677*56d#eeee6eryr6uyeereeuye6MN6eee565emneeeeeeeere,:w:>m=#w>77==677*56d@eeee6eryr"
};
