/* XPM */
static char *_583339514901[] = {
/* columns rows colors chars-per-pixel */
"128 128 61 1 ",
"  c #131313",
". c gray9",
"X c #1B1B1B",
"o c gray12",
"O c #3A3319",
"+ c #232323",
"@ c gray15",
"# c #282828",
"$ c #282F28",
"% c #2B2E2D",
"& c #2C2C2C",
"* c #2C2C2D",
"= c #2E2C2E",
"- c #322D22",
"; c #302D2D",
": c #263328",
"> c #3D3626",
", c #2D3030",
"< c #2C3031",
"1 c #2F3B3C",
"2 c #2F3F3F",
"3 c #303032",
"4 c gray20",
"5 c #323737",
"6 c #35353B",
"7 c #3A3A3A",
"8 c #453C15",
"9 c #453F2A",
"0 c #5D4E0E",
"q c #514512",
"w c #68570B",
"e c #746107",
"r c #7F6A04",
"t c #53472C",
"y c #3D3D43",
"u c #434343",
"i c #4E4E4E",
"p c #444450",
"a c #4B4B55",
"s c gray34",
"d c #555560",
"f c #5E5E6D",
"g c gray39",
"h c gray43",
"j c #676774",
"k c #777777",
"l c #72727F",
"z c #7A7A89",
"x c #579A9A",
"c c #848484",
"v c #878795",
"b c #939393",
"n c #91919F",
"m c #86BBBB",
"M c #A2A2A2",
"N c #A5A5AE",
"B c #AEAEAE",
"V c #B9B9B9",
"C c #BCBCC7",
"Z c #C5C5C5",
"A c #CDCDE0",
/* pixels */
"upuuuuppuyVVc6yyy6ykBkyyyyuybbyyyyyyvVcyyyyyyyy66633B@yyppyupupyuuuyyuppuyVVvy6yyyykBNyuyyyybbyyyyyybVvyyyyuyy6666<3B#uyupuppupu",
"aappupaappVVbppppupbVppaappaVVppapppbVVppppppauyyy5vV#yyappppppppuppppaappVVbpuppppBVVppapupVVppppapVVVbppaappyy7744V-yyppppaaap",
"saappppapyVVhyyyuuukV7yuu777VNy7yyyyyVVyyy7yyuy5477Vv#uyppppppppppppppaappVVyuuuy77VVb777y7yVVyyyy7uVVVVyyuyy7675756V#yyppppasap",
"asapuppapyVVy7y77yyyVyuyyuyyBbyyyyy7yVVyy7ybuu755y4V<#uypappppuppuppappaapbV77yyy7yVVyuyyyyyVVyy7yuyVVVVyuuyyy74475bV#uypppupasp",
"paappppppcVVspaaapbaVasaaabcNkaasaaaaVVpaahbsau57u5V<#yyppppppupppppppaasaiVaaaaaavVVaaasaaaVVaaaaapVVVVaaaaasu4775VV#yypppuppap",
"pppppppppBVVuppppsCMVsaapaVbNssasaasaVbaaaaasapp475V,@yyppppppppppppppaspusVaasssaBVVpaaacbbVVaaspyuVVVVaaaaaapp475VV#yyppppappp",
"pppppuppaBVVyuyppbZZVppppbVcBaacvbpppVuuuppapp7yyy4v<#yyppppppppppuppasapuuVpbpppaVCVbbpbNVVVVcpyyyyVVVVuyppppyy7bbVV#yypppppppp",
"uppupppayNVVy7yhbVZZVbbbbVvhBpaNNVbppVuppuvppagkyy533#yyppppppppupppppaapppVbVpcabVZVVVNCVVVvVNuyybyVVVVccaappyybVVVV#yypppppupp",
"yy7yyyyioNVVc##gVvCCVvcVVN4sVnNVBVVnvV34nMBvvbsgc#c@++7uuyyyyyyyyyyyyypi#o+VVV@NbVCAVVVZZVVV@VB#+bVbBVVVNN#@#kcbVccVc<yyyyyyyyyy",
"yyy7yyyioBVVN;33B&VVV@oVVb*pCZAVBVVZBV%%ZAVBbcX NcBo#4yyyyyyyyyyyyyyuyuu+++VBVXBVVZAVBBCAVVB3Bc3vVVVvbVbVV<k<kMVcXXVo=y7yyyyyyyy",
"yyyyyypu#BVVN636N6VVV<@VBh62ZAAVNNVABb66AZVBk,#oBVVX*6yyyyyyyyyyyyyyyyuu#*oVVV BVVAZVBvVZVVB7N5yZVVVyyVyVVcN7pcBXoXVo#77yyyyyyyy",
"puuiapii*BVBbyyybpVVV64VBpppAAZVbbBZVpppACBBp433VVVX*6yyuuupuipupauiuuii*6+VVV BBbACBByVCVVBycubZVNbuybyBVBBadpB4-+Vo<76suppiuup",
"ppppapai3BVBkapakyVVV76bB767AACNkhBCVyyyAVBBay77VVco4ypyuppupipppappuupp33oVVVoBB7AVBBpVVVVvapaNCVcaaaaaBVBBdfdN7*+Vo3yyupppuupp",
"uuipiiaayBVBddddsfMVVffgBiyiZAVbgiBBVfffZVBNdu7yBVoX*6yyuiiuuupiaiiiuupaya<VVV+cB4ZVBBpBVVVppppcVBaaapppBVBbdfdc6#XVo=yyuuuupupu",
"puuiiiuauBVBggggghhVVhhhBiyiVZBkhiBNMjjjCVBvji67BVoX*6y7piiiuupipiiuiiiayd7BVc+oB4CVBvaBBVVappppBBaappppBVBaghg77XXVo%yyiuuuipuu",
"puiiuupsyNBBdddddssVbsggBiyubCBghiBbfjddCVBfji7yBVoX*6yyuiiiippipuuuiiiayy7BVX+Xc6CVBpaNBVVaadjlNBappppdBVBaghg44XXco#uuiiiiippi",
"pupaupaa7cBBssssssdVssggbiyibVBghiBhfjfdZVBfjiupBV@X%7yypyipappipupiiuaa776BVXoX-3ZVBddcBVBadafznBfsapddBBBadfgpy*#.o4uupiuppppu",
"pappppaa7uBBssssdfgVfghkhgiiMVBghiByfjfsZVBfjiudBV@X=7yyppppppppppppppaa776BVXXX-4ZVBdfpBVBpy6dzzNzjappaBBBadfdda4#.@6yyppppppap",
"ppppuuaa7uBBsdsdgghVMvjljgubVVVbbbVvfjffCVBfjiudBV@X#7yyppsppppspuupppaa776BVXXX-5CVBpfaBBBp76szfBjlzjdfMBBaghddd5@.o4pppppppppp",
"ppppuupa7pBBggdggbMVVVnzzgcBVVVBNVVVnbjjVVBfjiydBB@o*7yypaapappapuuuppaa776BVXXX-4VVB4pdBBBypydjfBjzvjdjzBBadfddp4@.o4uupapppppp",
"pppppupa7pBBggssbBVVVVbMNhBBNBVNBVVVVNlzVVBffaydBB@X%7y7pppppappppuuppaa776BBXXX-4VVB3ydbBvypyaffBfjzjdadBBadfddp4@.o4yyppapuppa",
"ppppppas4uBNssvbBVVVMManCNCVNBMbBNMVCNssVVBpsu7pBBoX&6yyupapppaappppappa44;BBXXX34VVB6*yaBypppaddbzvvzddjBBpdfday*+.o3uupppapppp",
"ppppppaa;4Bbu7kVVCVbjjffCZZZNBjjBczVZVljVBBpduyuBNoX&6y7paapppaapppppaap*4+BB   *7VBB4*7pBpdffdaddlvzzdsfBBaddd6p*X o3uupppapppp",
"ppppppap#*Bg73;VCZbaaappbZCZvBppBppVAVMyVBBpduupBk@X#577ppappapappppuaas=*XBB   #7VBB#+33B##pfappy4yplzzfBNadfdpp4#.o4uuppapuppa",
"pupapppa;3B6y4*cbAyypapyyCVC7B77N77VAVBpVVBpsuuiB=#+<7y7ppppapppappuppaa*#XBN X -5VVB#+6yB###*y633<6azvzfBcadfdap4#.@6yypappppup",
"puppppaay4B7iu3@=AypaapbymVV7Ny7b77VACbybVBya7yuB<@o*7yypppaappppppppppy33+Bkooo*5VVB##7pB3###pd76<ajzzhdBupdfdyy*@.o4yyaappppup",
"ppppppaaa7Nuii4@<ZppsdkVshVVhmusxhsmAZypaVByy657B@oX*7yyppaapppappppppau66#Boooo-4bVB#@ydN6333pzjfsjzzzfaBupddd74@+.o4uuappppppp",
"pppaupaaa7b7iu4@3CppadhV=;BV;cu;;;;;ZZppaVB=<<,3N#oX*7yyaaappppaaupppupu66*BoXoX-3aVB#+<7ky3<*yflfffdsppaBpadfa<3@+.o4uupppppppp",
"upppppaaa7g7au=@3VbpaggB;;NV;hu;;;;;nCyyiVN=464,b#oX*7y7apppapppppppppap66,BXXXX-5aVB=#6p<*3,,yjjzdhapyaaBaadfd**@+.o4yypapppupp",
"ppapapasa747iu3@3VbpadsN;;mV;su;;;;;sVpyiBb7uiy,gooX*7yyppppppappappaupa67@B X X33pBB,#6p3##*yslzvbccapaabaadfd**++.o4yypppapppp",
"paaappssa747iu3#3Vyyisgm;;;V;gu;;;;*hbyyaBhuisu,*+oX*7yuuppppuppappaappa64*c X X34aBv6#6p3cc6pszzzBkNfappaadffd**@+.o4yyppupppau",
"ppaappsaa747iu3#*VppissuussVssuusssss7yyaVpuafi<*ooX*7yyupppppppappaaaaa66@o X X<7aVp6#6p6VVvbkMljbaBdpyyppadfd*4++.o4yypppppppp",
"pppaapaaa747iu,@*bypaskushhmhkushhsskyyyaVpyafi33ooX=7yypppppyupaappppsay7*X X X-5aVay*#6yVVVckVzvdfNdppyyiiadd4*X+.o4yyppyupppy",
"pppaapaaa747iy;+%7ypadhc=3;;;hu;;;;;h7ypaVp7afi4<ooX=7yypappupppaapppasap6*X X X-7aVpy3#c6VVV3pVMbhhcaiipy3ydfd4*X+.o4uypuppappp",
"papppaapa747u7@+&7ypsdgu;;;;;gu;;;;;g7yyaVp7ifi<5ooo4ypyppyuuppyppapupaap7*o    #5pVpp7#M&VVV7yVBhjsiiiiapsiafd*4X+.o4y7uuppppap",
"apppppaay736y3@+&6ppaasu;;;;;su;;;;;syypiBp7ifi<7ooX&7yyauppuuppppppppaay3#X    -5pBppp6c$VVV7yVBzgiiiippppddpd*7X+.o4yypuuppapu",
"pppappaa6767u6=+#4ypadgh;;;;;gu;;;;;gyypaBpyafi37ooX*7yyppppppppappppuaa6**+    -3pBpaap73NVV7sbBdsiuppuppadjhd*7X+.o4yypppppppp",
"pppppuppypaasp3##4yypahu;;;;;hu;;;;;hyppaBp6pdu,7ooX*6yyppppppppppuuuuasya4<oooo#3aBpppppycVV7paBsiiiiiuuupadfd*7X+.o3yypppppppp",
"papppuaapaddfa6#,7yyaasussssssushssssyyyaBy3ypy,7ooX*6yypppuppppppuppuaayd6#oooo-3pBpppppppVVpaaBiiipiiupppadfd*7XX o<yyupppapap",
"apppppaaypaadp3#=5ypadkushsshsushsshk7yyaB6@466,5ooX*6yypppppppppppppppsyp=+oXoX-5pBppiiauyVbpiiNiiiiaaipppadfa*4XX o*yypppppapp",
"ppppuppa6yppay4#&5yyishu;;;;;hu;;;;;hyypiB7*6yy76+oX@3yyppppuuuppupuppaa6*o+o o *4pBapuuuuuVupaacaaiiippappadfd43oX o*yypuuupppu",
"ppppppaaypaasu6#=47yadsu;;;;;su;;;;;syypiBpypadiy*@X*6yyppuppuuuppppppaay7<++o+o=,4B5<77373V343436y6u743bc355aaip*@.o*yyppuuappu",
"ppuppuaauassgi6@=4ypadsu;;;;;su;;;;;s7yyiBapadgdp4<o*6yyppuupupuppuapaapyu6##o+o###k$@*=*##V#@@@%&=,<*#cVN*36ypfa6*.o,yyupuppppu",
"uupuppapypaadu6@*5ypasgu;;;;;gu;;;;3gyppiNiypadda6<o*6yyppppppppupppupapy76#+ooX+X..XXXXXXXVoXoX%XXX+X.cVB*46adfa6*.o3yypppppuup",
"ppppppaa7uiisu3#*6ppadsu;;;;;sh;;;;;syppicpypaddp7<o&6yuappppppppppppppa774#+++++X.XXoX+oXXc++++@X@++@X.Vc3yaddfp7*.o,yypppppppp",
"ppppppaa7uiisu3@*5yyidiusssssissssssiyypispypaddp7<o&6yuspupppaupppppppa774####%=+XX+@####@######&##%#X+V47dddddp7*.o*yypppapppp",
"ppppupaa7uiisu3@*7paddkushhshkushhsskyppadaypadda5=o&6yuapppppappuppppaa7763777yy4#@#<343535<5644<357%+#V6iddddda5*.o*yypppaappp",
"apppppaa7uiisu3#<7ppadhc;;;;;hu;;;;;hyppadaypadda5<o&6yypaaapppapppppupp77u7upisgi3337777777777777yip467Vpaddddda4*.o*uuapppaapp",
"apppppaa7uiisu3@<7ypiggu;;;;;gu;;;;;gyppadaypadda4,o*6yyuappppuppppppupp7uiisssgh7>347777yyyyyyyyyyip57yVddddddda4*.o&uypppupapp",
"apppppaa7uiisu3@*4yyadsu;;;;;su;;;;;syyyadiypaddp4<o*6yypappupuppppppppp7uiisssgh7>6yuuuuppppppppppaa77yBdddddddp4=.o=uypupuuapp",
"ppaapapp7uiisu3@<7yyadgh;;;;;gu;;;;;gyyyasp6ypaay3#o*6yyppppppppapauupaa7uiisssgh79yadddddddddddddddsu7yvaaaaaaay,@.o&yyppppuppp",
"pupsappa7uiisu3#37yyidhu;;;;;hu;;;;;h7yyady36ypp7#oX*6yuappppuipsapupuaa7uiisssgh79yadddddddddddddsffa7yyuuuuuuu7@+.o&yyppupppuu",
"pupappaa7uiisu3@<7yyidsussssssushssss7yyis6#*47bnvbX*6yyppapppuaappppuaa7uiisssgh79yaddddddddddddddfji47bbyyyyyy4oX.o*uupppuupup",
"ppuaspaa47uui7=@<7yyadkushsshsushsshkyyyady&36yBZZZi*6yyppppuuppaspppuaa47uuiiisg69yaddddddddddddddfjavbbbuuuuuu4oX o*yypuuppppu",
"ppipapaa37uuiy<#,7yyadhu;;;;;hu;;;;;hyyysspypadnAAZX*7yyipupuuaupaippupp47uuiiids69yaddddddddddddddfjgBbadddddddy=@X#4yyiuuapppu",
"ppuuppaa7uiisu4@,7yyigsu;;;;;su;;;;;syppadapadffZAC+37yyuuppuuppupipppap7uiisssdd6gyaddddddddddddddfjgByddddddddp5$X@47yiuuppppu",
"puupppaaypaadu6@*5yisdsu;;;;;su;;;;;syppadiypaddnZco&6yypuppppupppppppaayuiissssfvccpaaaaaaaaaaaaaasfaNyddddddddp7+X+<7ypppuppup",
"uuupppaa37uui7=#*5yyadgu;;;;;gu;;;;;g7yyaapypaddpC#X&7yyppuupppupppppuaa4bbuiiisfBhN9uuyuuuuuuuuuuyaa1b4adddddddp7+X@4yyuppppuup",
"puppapaa#;vbb=#@*5yyadsu;;;;;sh;;;;;syppaapypaddpV@X%7yyppppppppppppppap*VVbbkba9ctB639955555555555t0tg5adddddddp7+X@4yypppppppp",
"piiappas*3BVVvg@,7ypaaausssssissssssiyyyaapypaddpV@X&7yyipapppuaaiiaapaa=VVVbhV2xqON88888888----555005i5adddddddp6+X@4uuippupppp",
"aiuuapsaypNVVZc#4ypppakushhshkushhsskyyyidpypaddpV@X=7yyupppppppupiapppayVVVuyVcctOk33383383<uuuuuuuyu5yaddddddsp4+X@3yyuppppapp",
"puupppaapacnVZg#,7yypahc;;;;;hu;;;;;hyyyidp6ypaayV@X=6y7uppppppppiipppaayVVViuVBy7755557upppiadddddffi7ypaaaaaaay3+X#<yyipppppup",
"ppppapaaypdfBC#@37y7pdgu;;;;;gu;;;;;gyyyadu36ypp7VoX&6yypppppasppappppaayVVViyVBipu75yyypadsdddddddfji7yyuuuuuuu7#X o*yyppasappa",
"pppappapypdfBN#@*5y7agsu;;;;;su;;;;;syyyady=3*55,VoX&6yyppppaaapapppupaayNVVi7bBsdauupppasdddddddddfji7yyyyyyyyy7oX o=yypaaaappa",
"pappppaaypdfBb@+*6y7iggh;;;;;gu;;;;;gyyyagy*=t559VoX*6yyaappapapppppppapycVVi7iBdddaiaadsddddddddddfja7uuuuuuuuuyoX o*uypapaapap",
"aappupaaypdfBg@+*6y7pdhu;;;;;hu;;;;;hyyyisp7uisu9b8X*7yyappppppppuppppaaypVVi7aBdddaisdddddddddddddfjausssssssssu*@.o4yyppppaaap",
"saapppaaypdfBu@@3yy7pdsussssssushssssyyyidpuasggi98o4yyyppppppppppppppaaypVbi7pNsddiisddddddsssaaddfjiusggggggggi5#.@6yyppppasap",
"asapupaa6yadB#@+*7ppigkushsshsushsshkyppadpuisgsi99X*7yypappppuppuppappa6yVdp5pcisipiisisiiipppupaagjiuisggggggsi7#.o4uypppupasp",
"paapppaa=3ppN#++*7ppighu;;;;;hu;;;;;hyyyidp7uisii9>X*7yyppppppupppppppaa=4Vpy4yuupuyuuuupuuuyyy7yyysfa7uissssssii7#.o4yypppuppap",
"ppppppaa#=66b@++3ypadfsu;;;;;su;;;;;s7ypadi7uisiu9>X*7yyppppppppppppppas*=Vy747yyuuyuy7yuuuuyyy7yuuasu7yissssssiu7#.o4yyppppappp",
"pppppuaa=366k4#+*7ppsdsu;;;;;su;;;;;s7yyadp7uisiu9>X*7yyppppppppppuppasa=4V7uyuuuuuuiy4uuuuuuuuuuuussu7yissssssiu7#.o4yypppppppp",
"uppuppaayp77du3@,7ppadgu;;;;;gu;;;;;gyypigi7uisiu7%X*6yyppppppppupppppaaypbisssiiissgu4aissssssssssggu7yissssssiy7#.o3yypppppupp",
"ppppppaaaduufa6@=5yyigsu;;;;;sh;;;;;syyyafi7uisiu7<X,yppapppppppppppppaapauadsssssgghi7adsggggggggsgji7yissssssiy7#.o<yyppppuppp",
"ppppppaspdu6di6@,7yyigiusssssissssssiyyyadi7uisiu7<X*7yyppuppuuuppppaupppdupdssssssghi7addssssssssdfji7yisssssssy7#.o4yyppuuuppu",
"ppuuppaapdu6dp5#,7ypsdkushhshkushhsskyyyadp7uisiu7*o37yupuuppppuuppppupppdupdddddddgji7addddsddddddfji7yisssssssy7#.@6yypppppppp",
"puppapappdu6dp6#=5yyashc;;;;;hu;;;;;cyyyidp7uissu7<X*7yypuuppppupappuupppdupdddddddghi5paaaasaaaaaafji7yisssssssy7*.o4y7ppppppup",
"ppppapapyp76sp6@<7yyadgu;;;;;gu;;;;;hyyyadp7uissu7,o4ypyuppupppppappuupayp7pdddddddghi<yuuuuppppuupdja7yisssssssy7*.o3yyupppuppp",
"uppaapaa6u66dp6@*7yyassu;;;;;su;;;;Vsyppasp7uisiu7,X*6yypppuuuppaapppppa7u6pdddddddghi<67777y7777bbadu7yisssssssy7*.o3yyuuuppupu",
"puuppppayp76dp6@,7ppaggh;;;;;gu;;;;VhyppiMi7uisiu7,X*6yyappppupppppupppacu7pddddddsghi<6yuuuy4yyuVVbb67yisssssssy7*.o3yyppupppuu",
"pppppuasusu6dp6#*7ppadhu;;;;;hu;;;VVcyppiZb7uisiu7-X*6yypaappppappupapaaBsupdddssssghi4yadddu4uisMVVV<7yisssssssy5*.o3uuppppappp",
"ppppppaa2su6sp3#*7pyidaVssssssushsVVsyppiZVg7uiuu5#X*6yuppapappapppppuaaBsupdddssssghi7pdffji7usggbVVc9yuiiiiiiiy4=.o3uupapppppp",
"pappppaaiku6dp3#3yppigzVBhsshsushsVVMyppiCVs47uu7<+X*6yyppppppppppppppaaBkupdddssssghi7yadfji7uagggMBNyyuppppppp73+ o3yyppppppap",
"ppppuuaasbu6d39#37ypadNBC;;;;hu;;ZVVcyppiVB#;4774+oX*6yyppsppppspuupppaaBbupdssssssghi7ypadfu7yadsghBB6yyyyyyyyy3#+ o<pppppppppp",
"ppppuupakNh6d1>#<7yypdBBZV;;;su;VZVCjyypaNB*47uu7+oX*6yypaapappapuuuppaaBNupdssssssghi7yyuaay7yadsgjNBy9pppppppp7+X o3uupapppppp",
"pppppupabBb6d4>+*5y7pbBVAVV;;sBVVCVZzayyabBypadsu@+o&7yypppppappppuuppaaBCupdssssssgji4777yu67yadsghxBhissddssssu=@X@<yyppapuppa",
"ppppppasNBN6d6>+*5y7vBBCACVVBVVVVVCAcdyyahBpisggi3#+37yyupapppaappppapaaBZupdssssssggi4yyupp77yaddfjiBhsggffggggi4*X@yuupppapppp",
"ppppppaaBBBcd5>+*7yyNBBZAZCVVVVVVVZZbgyyaiByisgsa3+o&7yypaapppaapppppaapBAbpdssssssggi7yadddu7yaddfjiBysggddgggst5+.o3uupppapppp",
"ppppppapBBBNb5>+*7yycBBZZZCVVNVVBbNCMkyyaaB7uisiu3oX&7y7ppappapappppuassBACpdssssssghiypdffji7yuisdfuByisssssssiy5+.o<uuppapuppa",
"pupapppaBBBBVvq8*577pbBVCVVVNbNBvaaVNMhpadB7uisiu*+X&7yyppppapppappuppaaBZZpdssssssshiyysdfji7yupaaayNyisssssssiy,+.o4yypappppup",
"puppppaaBBBBVVc8*6ppdgBBNNBBcgcBdddbBgdaadc7uisiy;oo&6yypppaapppppppppauBCAyaaaiiiiiguyyadfji6yyyyyu6cyisssssssiy3+X@4yyaappppup",
"piipppaaBBBBVVC8<yypaaBccNNBpppNpyppBpypap747uiu7#oo&6y7ypaapppapiupppapBVAbaaaiiuuuiuyyadfjsyppppppyypuiiiisiip7=+X@3uupppppppp",
"piiaupaaBBBBVVZb=77653N66NNB<4<k53<5c5657y6*67uy6+oX&6y6uaappppaauippuaiBVACdddssisssuyyadfjfdddddddy9pyuuuupyyy6+X o3uyappppppp",
"uiiipppaBBBBVVZZn<674<k=3BNc777635557774574=37uy4ooX#476iyppippppiuuppigBVAZbffsdgdggiyyadfffffffffja4y7yyyyy77y5oX o*yyiippuupp",
"piauipasBBBBVVZAZn%%%###*Bc#####3333%##=354;4cMn7ooX*6y7puypppaypipiiupbVVAACdddssdfgi7yadddddddddfji;6yuuuupuui7o. o*yypiuapppu",
"paaappssBBBBVVCAAZb@#+..XB+##@@###<=@.X+-7uvvbZZb*oX*7yuuppppuppappaapaNCCAAZbddsddfgi7yadddddddddfji=7isssssssgt=+.@4yyppupppau",
"ppaappsaBBBBVVCAAAZv98+++B@::#&##=33#+#<6uuCCsZAb4oo37yyupppppppappaaaaBZZAAACdddddfji7ypaaaaaaaaadfu4ysgkgggggfa5+.#6yypppppppp",
"pppaapaaBBBBVVCAAAAZb8%<<B347543336y*#*yuiiCnsMZi7XX*7yypppppyupaappppsBZAAAAZbddddfji7yyuuuuuuuuuaay47igbggggggs7X o4yyppyupppy",
"pppaapaaBBBVVVCAAAAZZbc56B777777777y3*4isisVsisZs7.X*7yypappupppaapppasBCAAAAACbsddfja377yyyyyyyyyuu747isNsssssgs7X o4uypuppappp",
"papppaapBBBBVVCZAAACAZCvvBuuupuuuupi737isssVsisVs7 o4ypyppyuuppyppapuphVVZAAAAZVsddfi7<yyuuuuuuuuuui747isVsssssgs7X o3y7uuppppap",
"apppppacBBBVVVVCZAZVAZZCCBbiissiiissu37isssbsssbi6 X*6yyauppuuppppppppbVVCAAAAACMMbsp59iisdddddddsssy47ibVkssssgs6X o<yypuuppapu",
"pppappaNBBBBVVVVCZCVZCAZZCCbMgggggggi37isssssssgs7.X*6yyppppppppappppuNVVVAAAAAZZZVMn4tisgggggggggggi47iVVbsyssgs7X o=yypppppppp",
"pppppuuBBBBBVVVVVCVVCVZZAZZCZbbsssghi37isssssssgs7XX*6yyppppppppppuuubVCCVZZAAAAAAVZZbbasgggggggggghi47MVVNsysbgs7. h&yypppppppp",
"papppucBBBBBVVVVVVVVVMCCZAAZAVVbbbghi37isssssssgs7oo*7yypppuppppppupbVCZZCCCZAAAAAVAAZZMMsssssssssghs4kZVVBkisVbs7+XM3yyupppapap",
"apppppMBBVVBBBVVVVVVBbVVCAAAZVVVVVMMbcnisssssssgi6o+37yypppppppppppbVVZAACVVCAAAAACAAAAZZnnsssssssghc4MAVVVbhbVVi6+gC6yypppppapp",
"ppppupBBBVVNNBBVBVVVBbVVVZZZCVVVVVVVVCZbbbbbiiiii6oX*7yyppppuuuppupVVVZAACVVVZZAZZCZAAAAAZZbbiiihshcMnVZVVVNbVVVisXMZ4yypuuupppu",
"pppppcBBVVVccBBVBBVVBNBVVZCCBVVVVMVVVCZVVBVVbbbbiyoo37yyppuppuuuppbVVVCAZVVVVCCZCCVCAAAZAAAVVbbbbvbMCZVCVVCVNVVVbccCAnyyppuuappu",
"pphhhcbVCVb7ucBVVBcvBVbNVZVVBNbNbbVbVMCVVBVVVVVVbb4+3hyhhhhupupubvNNNBVZCVVVVVBCVVBVAAZCZZACCCCVNBNVZACVVCZVVVVVBMVZAZbyupuppppu",
"aaaasaaCZby748NVVB<7BVbcVAVVBcacpMbababNVBVVVVVVVVg74hpbbbbvassaVBvvvBVCVVBNBBBVVVVVZZCVCCACCCCVVVVVZAZVVZAVVVBBBVVZZZBbsasssaas",
"sasassaMApy5<OkBVB>>VVbpNZVVVaspkCagaaacBBVBNBBBbvy747acNNNbsssaBbsssbBVVBBcbbvBVVVBVCVbbVZMnCnVVVVVCZZBVZZbVBBBBVVCnCbbssssssas",
"sssssassZyy64<OBBB,bVVNucCVVVagpMZpcaauyBBVNcNBcy7753yaabBBsasdabsassaNVVbvaaapvBVVBNbbaaBCspbpVVBVVBCCNbCCubcbBBBBN7cpusasdssss",
"sassaassB7ewwe2VBB6CVBN5yVVVVbcbVZjcckekBBVNykB955563*padBNssadssaassacBVbyuy7yyNVVBcyyyyBbyyyybBBVBBVVN9vcettebBBBc<,ppssaddsaa",
"dsssssssk8qwwetVBc6CVBcybVVVVbkVVB6hMNMMBVVVv6Nuy5t63-ppsBcdsssdsssssaaBVbuy77yucVVNyyyyyByyyyyyBBVNBVBN979qeteecBBe6-aadsssddss",
"apppppaa588wqttBB6yCVByybMVVVyyVVb6aVCVNNBVZv4k7y6=y3#yyubppppuppppppupBVMy6y147yNBz6yyyyvyyyyyybMBlBVBb-ut88e8tqBb73@uypppupapp",
"apppppap5+8wqi>BBupZVByuvkVVVyyBBhy2ZAZBnMVZv47yy6373#yyphppupuppppppppBVB55y9<6ynMyupyyyfyyyyuyhvMyBVBh-uO88u8tOMg73#uypupuuapp",
"ppaapapp5#8wqu>BBpyZVBypkyBVVuybByyyAAZNxvBZh67yy76634yyppppppppapauupaBCVg5t>9<yncyppyy6yuyyyyyyhcyBVB75@-88eq>#c473#yyppppuppp",
"pupsappp5,8t8<>BByyCVBpygybVVyyhBypyAACMgjBVfy7yyu7634yuappppuppsapupuaBZVct2OtyyMfyyyyyyyyyy7yuyufuMVBy7-5-85t5#s<76<yyppupppuu",
"pupappap54>888>BBy7VVByyuyhVByyuBtpyZAVc9pBB667yyiy7=3yyppapppuaappppuaVZVN8y8g,4Byyypypuyyyu77yy7ypvBBpy67-8-55#*-7d#yupppuupup",
"ppuaspapy5,>>8>BMy7VVBpyyyyVbyyuMyypBZBfyyBMy9yyyy76=4yyppppuuppaspppudVVVBgi8bg6Bgyyyyyuuyyyy7y77yyfBB77,5,@-56<y-yc#yypuuppppu",
"ppppapapy74t>#<Bn5yVVBpyyyyVhuyyvyy5bCMyypBc67yyyy7434yyppupuuaupappppdVMVVci9Bx6Mcyyyyyuyy7yyy7ypypyBBy7,5,--67<y33M#yypuuapppu",
"pppuppapy7<<t=<Bz5yVBBpyyuyVyyyyjy77gVny9pBfyyyyyy9933yyuuppuuppupppppdVhVVMu8VMpvn77yyyy777yyupyyuyyBB76,55-37y<p33B#7ypuuppppu",
"puupppapy7755-4Bg57BBByyyyyVyuyppy771Bzy6<B7yyyyyy,,>4yypyppppupppppppaB8VVB88VBahNg49yyyyyyuyyuuupyyBB65-y777yy6p3gVu7ypppuppup",
"uuupppapyyy7735Bt77bVByuiiyByyiapuy75Bg5ytN7yyyyyy76>4yypppupppupppppuaM-VVV88BBaaMzjyyyyyyuuyayyy77yBM655pyyyyy7p6cCgyyuppppuup",
"ppppapapyyyy735NyyyhVByuyyybyypyyyy75Bt5ytMyyyy5-p<8>6yypppppppppappppaz8BVV80bBy9bxvhi97yyyyyypauyyyBb657yyyyyy667bZgyypppppppp",
"pppappaiyihhyy7nyyyyVByyyyyhuyyyyyyy5BO8O6v5uyy577t8>4yyppapppuaappaappa8bVVtwhB88ckMvi;5567yyypuuuyyBc77uyyyyyy367vZiyupppupppp",
"apuuapspyibbiy7cyuuuVN7yuyyyyyyy66yy5B8@-5h5yyyu--t@>4yyppppapppuapapppy8hVV8wwB88ggBMuO>t<17yyyyuuy7Bgyyyyy77y7666hZ#yyppppiapp",
"puuppyaayyBNi7ygyyyuVM77u77yyyy7<1yy5B@8q$uyyyye--88>4yypppppppppppppyay8wVV80rM8888BNqq8>t<77yyyuuy7Byyypy77767667yC#yyppppppup",
"piyyuyaay7VVyyyyyy7yBMyyy7777yy791q>5B-O8>--8-688@t%34yyypppppdpppyyyypy8eVBw88c9988BBqOOt>1555yyyyy7B7yy7yy7yy5*67yV#yyyypsaypp",
"pyyuyyapy7VC7yyy675yBNyyyyyyyyuy<t>t,B--t,88--788%67h@yyyy9yupy9ayyyyya9#8VB;88fu@@@BBX---51115yy6yy7B6777yyyy7,-*77B#yyyuuuuyyu"
};
