/* XPM */
static char *_583339508751[] = {
/* columns rows colors chars-per-pixel */
"128 128 60 1 ",
"  c #131313",
". c gray9",
"X c #1B1B1B",
"o c gray12",
"O c #3A3319",
"+ c #232323",
"@ c gray15",
"# c #282828",
"$ c #282F28",
"% c #2B2E2D",
"& c #2C2C2C",
"* c #2C2C2D",
"= c #2E2C2E",
"- c #322D22",
"; c #3D3626",
": c #363228",
"> c #2D3030",
", c #2C3031",
"< c #2F3B3C",
"1 c #2F3F3F",
"2 c #303032",
"3 c gray20",
"4 c #323737",
"5 c #35353B",
"6 c #3A3A3A",
"7 c #453C15",
"8 c #453F2A",
"9 c #5D4E0E",
"0 c #514512",
"q c #68570B",
"w c #746107",
"e c #7F6A04",
"r c #53472C",
"t c #704628",
"y c #3D3D43",
"u c #434343",
"i c #4E4E4E",
"p c #444450",
"a c #4B4B55",
"s c gray34",
"d c #555560",
"f c #5E5E6D",
"g c gray39",
"h c gray43",
"j c #676774",
"k c #777777",
"l c #72727F",
"z c #7A7A89",
"x c #848484",
"c c #878795",
"v c #939393",
"b c #91919F",
"n c #94B08D",
"m c #A2A2A2",
"M c #A5A5AE",
"N c #AEAEAE",
"B c #B9B9B9",
"V c #BCBCC7",
"C c #C5C5C5",
"Z c #CDCDE0",
/* pixels */
"uuuyyuppuyxBvy5yyyykBNyuyyyygcyyyyyyxNgyyyyuyy555522N#uyupuppupuuuuyyuppuyBBcy5yyyykNMyuyyyyvvyyyyyyvBcyyyyuyy5555,3N#uyupuppupu",
"puppppaapppBBpuppppNBBppapuppNppppapNNppppaappyy6633N-yyppppaaappuppppaappBBvpuppppNBBppapupBBppppapBBBvppaappyy6633B-yyppppaaap",
"ppppppaappdBBuuuy66BBB666y6y6Nycyy6uNNy6yyuyy6564645N#yyppppasapppppppaappBByuuuy66BBv666y6yBByyyy6uBBBByyuyy6564655B#yyppppasap",
"puppappaapdBB6yyy6yBMBvyyyyyyvyNcyuycN6yyuuyyy624646NkuypppupasppuppappaapvB66yyy6yBByuyyyyyBByy6yuyBBBByuuyyy63264vB#uypppupasp",
"ppppppaasaiBBaaaaaaBxBBasaaaasaNNaapuNppaaaaavu56644NMyypppuppapppppppaasaiBaaaaaacBBaaasaaaBBaaaaapBBBBaaaaasu5664BB#yypppuppap",
"ppppppaspusBBasssasBavBvaassasxNVxyuaNpaaaaavBvp3644NNyyppppapppppppppaspusBaasssaNBBpaaaxvvBBaaspyuBBBBaaaaaapp364BB#yyppppappp",
"ppuppasapuuBNppppacMppBBapaapcMNCByvuNcyuypvBBBv6634NMyyppppppppppuppasapuuBpvpppaBVBvvpvMBBBBxpyyyyBBBBuyppppyy6vvBB#yypppppppp",
"upppppaappvBmcppavMvppBBvvpapMBxCCbVmBMuppvBBcBB6y32NmyypppppuppupppppaapppBvBpxavBCBBBMVBBBcBMuyyvyBBBBxxaappyyvBBBB#yypppppupp",
"yyyyyypi#vBNgN@ vBNg@@MNNBvv@MB@VCCCCBk+#+BBB+BBooooBvyyyyyyyyyyyyyyyypi#o+BBB@MvBVZBBBCCBBB@BN#+vBvNBBBMM@@#kxvBxxBx>yyyyyyyyyy",
"yyyycvuu+BBNXNX.NBN*2>xNNBBVxxN2BVZZVN252=BBv2Bx XX.Bmy6yvvyyyyyyyyyuyuu+++BNBXNBBCZBNNVZBBN2Nx>cBBBcvBvBB,k,kmBxXXBo*y6yyyyyyyy",
"yyyyNBvu#BBN N  xNN446ycNBBCNyMyNBZCNNyyu6BB6pBXXoXgBM66yBvyyyyyyyyyyyuu#*oBBB NBBZCBNcBCBBN6M5yCBBByyByBBxM6pxNXoXBo#66yyyyyyyy",
"pauiNBNi*BBN x .@NcyyyyyNMBCNyxyMBZVNvyyyyvNddb53-+vBN65cNppiuuppauiuuii*5+BBB NNvZVNNyBVBBNyxuvCBMvuyvyNBNNadpN2-+Bo>65iuppiuup",
"pappMNvp2BBNoooo@NppppppcxNVcpaaxBCBNaaaappNdfdy6&+vBxyycNppuupppappuupp22oBBBoNN6ZBNNpBBBBcapaMVBxaaaaaNBNNdfdM6*@Bo2yyupppuupp",
"aiiivNpayvBN+++@*NpaapppppNNpppppBVBNppppppMdfdy5#XmB2yyuNuupupuaiiiuupaya>BBB+xN3CBNNpNBBBppppxBNaaapppNBNvdfdx5#XBo2yyuuuupupu",
"piiuhMiaydBx+o+o-xpaaaapppNNpppaaBBBNpppaaaxghg66XXMB*yyivuuipuupiiuiiaays6NBx+oN4VBNcaNNBBappppNNaappppNBNaghg66XXBo*yyiuuuipuu",
"puuuixiayyB++X+X24apppapppNvadjljBBNMppdfapaghg23XXNB*uuiiiiippipuuuiiiayy6NBX+Xx5VBNpaMNBBaadjzMNappppsNBNaghg32XXxo%uuiiiiippi",
"pupiiuaa66B+oXoX-2aapddppaNadafzzNBNxpddddaadfgpy=#NB3uupiuppppupupiiuaa665NBXoX-2CBNddxNBNadafzbNfdapddNNNadfgpy*#.o3uupiuppppu",
"ppppppaa66B+XXXX-4ppydfpadNpy3dzzNBNappaffaadfdda3#NB5yyppppppapppppppaa665NBXXX-4CBNdfpNBNpy3azzNzfappaNNNadfdda3#.@5yyppppppap",
"puupppaa66B+XXXX-4ia5pfaaaNp6,dzfNNNljdflfaaghddd5@NN3pppppppppppuupppaa665NBXXX-4VBNpfaNNNp65szfNjzzfdfmNNaghdds4@.o3pppppppppp",
"puuuppaa66c+XXXX-25p54pdayNypydjfbNMcjdjzfpadfddp2#NN3uupapppppppuuuppaa665NBXXX-3BBN3pdNNNypydjfNjzcjdjzNNadfddp3@.o3uupapppppp",
"ppuuppaa665+XXXX-336y2yspycypyafffNmzjspddpadfddp2@NN3yyppapuppappuuppaa665NNXXX-3BBN2ydvNcypyaffNfjzjsadNNadfddp3#.o3yyppapuppa",
"ppppappa33=+XXXX2323y5*ya6ypppaddfNcczddjappdfday%+NN2uupppappppppppappa33=NNXXX23BBN5*yaNypppaddvzcczddjNNpdfday>+.o>uupppapppp",
"pppppaap=3+o    *62#33&6p6pdffdaddNczzddfapaddd5p*XNx>uupppapppppppppaap=3+NN   &6BNN3*6pNpdffdaddlczzddfNNaddd5p=X o,uupppapppp",
"ppppuaas==XX    #63###+22###pfappyNypzzzfppadfdpp3#No3uuppapuppappppuaas*=XNN   #6BNN#+23N##pfappy56plzzfNMadfdpp3#.o3uuppapuppa",
"appuppaa=#XXX X cby5##+5y>###=vvv,M3azczfppadfdap3#N@5yypappppupappuppaa*#XNM X -4BBN#+5yN###=562222azczfNxadfdap3#.@5yypappppup",
"pppppppy2>+oooooVVpy>##5py2##xBBBxMajzzhdpypdfdyy*@No3yyaappppuppppppppy22+Nkooo&4BBN##5pN2###ad642ajzzhdNupdfdyy=@.o3yyaappppup",
"ppppppau55#+ooooVbpp5##ydp52kNBBBBMjzzzfapypddd63@+No3uuapppppppppppppau55#Noooo-3vBN##ysM5232pzjfdjzzzfaNupddd63@+.o3uuappppppp",
"aupppupu55*ooXoXB2aa6#+26yy2kNMmBVNfddppappadfa>2@+Mo3uuppppppppaupppupu55*NoXoX-2aBN#+26ky2>,5flfffdsppaNpadfa>2@+.o3uupppppppp",
"ppppppap55%XXXXXB5aay=#5p,*,>NxjBCByapyaaaaadbd**@+ho3yypapppuppppppppap55*NXXXX-4aBN*#5p,=2>>yjjzdhapyaaNaadfd*=@+.o3yypapppupp",
"pappaupa56#o X Xx2pap,#5p,##=NslBZBvaapaaaaadBd>*++.o3yypppapppppappaupa56#N X X22pNN>#5p3##=ydlzcvxxapaavaadfd**++.o3yypppapppp",
"appaappa53=o X X22aap5#5p2##2MdzBZBNdfappaadfBs**@+.o3yyppupppauappaappa53*x X X23aNc5#5p,xx5pdzzzNkMfappaadffd**@+.o3yyppupppau",
"appaaaaa55#X X X>6aap5#5p555pvflBZVbjdpyyppadNd*3++.o3yyppppppppappaaaaa55#X X X>6aBp5#5p5BBcvkmljvaNdpyyppadfd*3++.o3yypppppppp",
"aappppsay6*X X X-4aaay&#5y3>pgfzmZCffdppyyiiaMd4*X+.o3yyppyupppyaappppsay6*X X X-4aBay*#5yBBBxkBzvdfMdppyyiiadd3*X+.o3yyppyupppy",
"aapppasap5*X X X-6aapy2##5y>>,pjjCChgaiipy2ydcs3*X+.o3uypuppapppaapppasap5*X X X-6aBpy2#x5BBB2pBbvhhxaiipy2ydfd3*X+.o3uypuppappp",
"ppapupaap6=o    #4pppp6*##5y56yfzMVdiiiiapsiafd=3X+.o3y6uuppppapppapupaap6*o    #4pBpp6*m#BBB6yBNhhdiiiiapsiafd*3X+.o3y6uuppppap",
"ppppppaay>#X    -4ppppp52$##36ydlzBaiiippppddpd*6X+.o3yypuuppapuppppppaay2#X    -4pNppp5x$BBB6yBNzgiiiippppddpd*6X+.o3yypuuppapu",
"appppuaa5**+    -2pppaap62$&#6sfgdviyppyppadjhd*6X+.o3yyppppppppappppuaa5**+    -2pNpaap62MBB6dvNdsiuppuppadjhd*6X+.o3yypppppppp",
"ppuuuuasya3,oooo#2aapppppy6326paasiiiiiyyypadfd*6X+.o2yyppppppppppuuuuasya3>oooo#2aNpppppyxBB6paNsiiiiiuuupadfd*6X+.o2yypppppppp",
"ppuppuaayd5#oooo->ppppppppppypaaaiiipiiypppadfd*6XX o>yyupppapapppuppuaayd5#oooo-2pNpppppppBBpaaNiiipiiupppadfd*6XX o>yyupppapap",
"pppppppsyp=+oXoX-4pappiiiyyyypiiiiiiiaaipppadfa*3XX o=yypppppapppppppppsyp*+oXoX-4pNppiiiuyBvpiiMiiiiaaipppadfa*3XX o*yypppppapp",
"pupuppaa5*o+o o &3ppapyyyyyyypaaiaaiiippappadfs33XX o*yypuuupppupupuppaa5*o+o o &3pNapuuuuuBupaaxaaiiippappadfd33XX o*yypuuupppu",
"ppppppaay6,++o+o&>44vbbb362*232234y5u6cbm,>55aaap*#.o*yyppuuappuppppppaay6>++o+o&>4N426636>B232335y5u632vx244aaip*#.o*yyppuuappu",
"ppuapaapyu5##o+o####NCCCs#######***>>*kCCc=25%pfa5*.o>yyupuppppuppuapaapyu5##o+o@##k##&&&##B####***>>*#xBM*25ypfa5*.o>yyupuppppu",
"upppupapy65#+ooX+X..xZZCXXXXXXXX*XXX+X.CZc=35adfa5*.o>yypppppuupupppupapy65#+ooX+X..XXXXXXXBXXXX%XXX+X.xBN*35adfa5*.o2yypppppuup",
"pppppppa66xcxxxx+X.XXCZVXXX+@+++#X+++@XcC#2yaddfp6*.o>yypppppppppppppppa663#+++++X.XXXX+oXXx++++@X+++@X.Bx2yaddfp6*.o>yypppppppp",
"pppppppa66xVBBBBxxXX+bCc#########&##*@X+V26dddddp8;.o*yypppapppppppppppa663####**+XX+############*##*#X+B36dddddp6*.o*yypppapppp",
"puppppaa665bvvvBBB#+#2V42424>4<,,,>46=@#B5iddddda8;.o*yypppaappppuppppaa6653666yy4#+#2242424354442246*+#B5iddddda4*.o*yypppaappp",
"pppppupp88u6upivBBx226B66666664r8ryip446vpaddddda77.o*uuapppaapppppppupp66u6upisgi2226666666646666yip446Bpaddddda3*.o*uuapppaapp",
"pppppupp84iisssgmNN;88B8854w4r4454yi<86yaddddddd900.o%yypppupapppppppupp6uiisssgh6;>46666yyyyyyyyyyip46yBddddddda3*.o*uypppupapp",
"pppppppp84iisssghNN,44B-->7err791p16976yaddddddu90:.o,uypupuuapppppppppp6uiisssgh6;5yuuuuppppppppppia66yNdddddddp3*.o*uypupuuapp",
"apauupaa84iisssghMNyadBsdy6>yyu7-566-86ypaaaaa19r77.o%yyppppupppapauupaa6uiisssgh68yaddddddddddddddddu6ycaaaaaaay>#.o*yyppppuppp",
"sapupuaa84iisssghxNhadBdsapyypy4usaap66yyuuuuur;;7O.o%yyppupppuusapupuaa6uiisssgh<8yaddddddddddddddffi6yyuuuuuuu6@+.o*yyppupppuu",
"appppuaa84iisssghaNhadBddssadypuahddi6365yyyyy4<8-X.o%uupppuupupappppuaa6uiisssgh5ryaddddddddddddddfji36vvyyyyyy3oX.o*uupppuupup",
"aspppuaa88uuiiisguNyadBddddaddiidjdfji36uuuuuuuu8+- o%yypuuppppuaspppuaa46uuiiisg4;yaddddddddddddddfjacvvvuuuuuu3oX o*yypuuppppu",
"paippupp8844uiidsuNyadbddddadddddjdfji3yadddsddd4:OX#3yyiuuapppupaippupp36uuiiids48yaddddddddddddddfjgNvadddddddy&#X@3yyiuuapppu",
"upipppap8468uisdduMyaddddddddddddddfji6yddddddddy87X@35yiuuppppuupipppap6uiisssds<gyaddddddddddddddfjgNyddddddddp4#X@36yiuuppppu",
"ppppppaa54r;6uisspxypaaaaaaaaaasaaadfu6yddddddddp87X+>6ypppuppupppppppaayuiissssfcxxpaaaaaaaaaaaaaadfiMyddddddddp6+X+>6ypppuppup",
"pppppuaar;;<46uaap3yyuuuuuuuuuukuvvcay6yaddddddau70X@3yyuppppuuppppppuaa3vvuiiisfNhM<uu6uuuuuuuuuuupa5v4adddddddp6+X@3yyuppppuup",
"ppppppap$;;;4441du36yyyyyyyyyyymxBBMvx6yadddddday70X@3yyppppppppppppppap&BBvvkvarzrN<4rr44444444444r0rg4adddddddp6+X@3yypppppppp",
"aiiaapaa,4;ryy41diyuuuuuuuuuuuvBMvvvNMcyadddddspy;OX@3uuippuppppaiiaapaa=BBBvhB<x7OM77O77777----444994i4adddddddp5+X@3uuippupppp",
"upiapppayu114yaddsaaiiiiiiiiiivBNiidbMBgaddddapu<;-X@3yyuppppappupiapppayBBBuyBxxrOk2>,7,373>uuuuuuuuu66addddddsp3+X@3yyuppppapp",
"piipppaaypdu641ddddddddddddddddBvddffBBgpaaaaa1y4:+X#>yyipppppuppiipppaayBBBiuBNy6644456upppiadddddffi6ypaaaaaaay>+X@2yyipppppup",
"pappppaaypdfi41ddddddddddddddddBdddfjBNyyuuuuuuu5#X o>yyppasappapappppaayBBBiyBNipu64yyypadsdddddddfji6yyuuuuuuu6@X o>yyppasappa",
"apppupaaypdfi86ddddddddddddddddBdddfjMNyyyyyyyyy6oX o*yypaaaappaapppupaayMBBi6vNsdauupppasdddddddddfji6yyyyyyyyy6oX o*yypaaaappa",
"ppppppapypdfar6sdddddddddddddddBdddfjvNuuuuuuuuuyoX o*uypapaapapppppppapyxBBi6iNdddaiaadsddddddddddfji6uuuuuuuuuyoX o*uypapaapap",
"puppppaaypdfi;ysdddddddddddddddBdddfjhNsssssssssu&#.o3yyppppaaappuppppaaypBBi6aNdddaisdddddddddddddfjiusssssssssu*#.o3yyppppaaap",
"ppppppaaypdfi8<isddsddddddddsssNaddfjiNsggggggggi4#.@5yyppppasapppppppaaypBvi6pMsddiisddddddsssaaddfjiusggggggggi4#.@5yyppppasap",
"puppappa4yadp8<iisipiisisiiipppxpaafjiNisggggggsi6#.o3uypppupasppuppappa5yBdp4pxisipiisisiiipppupaafjiyisggggggsi6#.o3uypppupasp",
"ppppppaa$8ypy85uupuyuuuupuuuyyy6yyydfaNuissssssii6#.o3yypppuppapppppppaa=3Bpy3yuupuyuuuupuuuyyy6yyydfi6uissssssii6#.o3yypppuppap",
"ppppppas%O,y688yyuuyuy6yuuuuyyy6yuuasuxyissssssiu6#.o3yyppppapppppppppas&=By646yyuuyuy6yuuuuyyy6yuuadu6yissssssiu6#.o3yyppppappp",
"ppuppasa,;,4uyuuuhuviy4uuuuuuuuuuuussu6yissssssiu6#.o3yyppppppppppuppasa=3B6uyuuuuuuiy3uuuuuuuuuuuussu6yissssssiu6#.o3yypppppppp",
"upppppaayvcisssiiisvgx3aissssssssssggu6yissssssiy6#.o2yypppppuppupppppaaypvisssiiissgu2aissssssssssggu6yissssssiy6#.o2yypppppupp",
"ppppppaapVVadsssssgghx6adsggggggggsgji6yissssssiy6#.o>yyppppupppppppppaapauadsssssgghi6adsggggggggsgji6yissssssiy6#.o>yyppppuppp",
"ppppaupppVmpdssssssghi6addssssssssdfji6yisssssssy6#.o3yyppuuuppuppppaupppsupdssssssghi6addssssssssdfji6yisssssssy6#.o3yyppuuuppu",
"uppppupppBupdddddddgji6addddsddddddfji6yisssssssy6#.@5yyppppppppuppppupppdupdddddddgji6addddsddddddfji6yisssssssy6#.@5yypppppppp",
"pappuupppBupdddddddghi5paaaasaaaaaafji6yisssssssy6*.o3y6ppppppuppappuupppdupdddddddghi5paaaasaaaaaafji6yisssssssy6*.o3y6ppppppup",
"pappuupayv6pdddddddghi$yuuuupppvvvpdji6yisssssssy6*.o2yyupppuppppappuupayp6pdddddddghi>yuuuuppppuupdji6yisssssssy6*.o2yyupppuppp",
"aapppppa6u5pdddddddghi>56666yvvBBBcadu6yisssssssy6*.o2yyuuuppupuaapppppa6u5pdddddddghi>56666y6666vvadu6yisssssssy6*.o2yyuuuppupu",
"pppupppayu6pddddddsgi6s5cuuuvNBBBBvvm66yisssssssy6*.o2yyppupppuupppupppaxu6pddddddsghi>5yuuuy3yyuBBvv56yisssssssy6*.o2yyppupppuu",
"ppupapaausupdddssssgi64yvsxvNBBBmvsvVb6yisssssssy4*.o2uuppppapppppupapaaNsupdddssssghi3yadddu2uismBBB>6yisssssssy4*.o2uuppppappp",
"pppppuaausupdddssssgi46pdfcBBVBvggghVC6yuiiiiiiiy3*.o2uupapppppppppppuaaNsupdddssssghi6pdffji6usggvBBx6yuiiiiiiiy3*.o2uupapppppp",
"ppppppaausupdddssssgi64yadfBVCvagggicC844<ppppp<8>+ o2yyppppppapppppppaaNkupdddssssghi6yadfji6uagggmNN6yuppppppp6>+ o2yyppppppap",
"puupppaausupdssssssgi66ypadvbZyadsgi6V85444844448@+ o>pppppppppppuupppaaNvupdssssssghi6ypadfu6yadsghNN4yyyyyyyyy3@+ o>pppppppppp",
"puuuppaa4uupdssssssgi608yuaayZyadsghiv6ypp99999987+oo2uupapppppppuuuppaaNMupdssssssghi6yyuaay6yadsghMN6ypppppppp6+X o2uupapppppp",
"ppuuppaa4uupdssssssgpr007788<Cyadsghi2yasu4844uu4;0+@3yyppapuppappuuppaaNVupdssssssgji3666yu56yadsghxNhasssdssssu&#X@3yyppapuppa",
"ppppapaa4hupdssssssgi00O;r994Vyaddfji6udg6<<igggi3;o#5uupppappppppppapaaNCupdssssssggi3yyupp66yaddfjiNhdggffggggi3&X#5uupppapppp",
"pppppaap4vupdssssssgg70yaddduBvaddfji6ysgiuisggsu37oo3uupppapppppppppaapNZvpdssssssggi6yadddu6yaddfjiNysggddgggsu3+.o3uupppapppp",
"ppppuass4M6pdssssssgh8rpdffjaBvuisdfu6yisuiisssiu27oo3uuppapuppappppuassNZVpdssssssghiypdffji6yuisdfuNyasssssssiu2+.o3uuppapuppa",
"appuppaarMrydssssssu4rr<sdfjaByupaaa48yisiiisssiy>7oo2yypappppupappuppaaNCCpdssssssshiyysdfji6yupaaayMyisssssssiy>+.o3yypappppup",
"ppppppau7N,9<11O888788<yadfjiByyyyyu>8yisiiisssiy>7k@4yyaappppupppppppauNVZyaaaiiiiiguyyadfji6yyyyyu5xyisssssssiy>+X@3yyaappppup",
"piupppap7M491110r;rO888yadfjsbpppppp88<uippisiip6*+M@2uupppppppppiupppapNBZvaaaiiuuuiuyyadfjsypppppp66puiiiisiip6&+X@2uupppppppp",
"auippuapyvg1udsyu4suy886adfjfddddddsu8<44444<444>+kNo2uyipppppppauappuaiNBZVdddssisssuyyadfjfdddddddu6pyuuuupyyy5+X o2uyippppppp",
"piuuppiayhvgfffsdgdiprryadfffffffffji788448887787+MNo%yyiippuupppiuuppigNBZCvffsdgdggiyyadfffffffffji3y6yyyyy66y4oX o*yyiippuupp",
"pipiixpaypmvddddssdpi7Oyadddddddddfji;>yuu44<446hgNNo%yypiuapppupipiiupvBBZZVdddssdfgi6yadddddddddfji25yuuuupuui6o. o*yypiuapppu",
"appaaMhaypvMddddsddfi8;yadddddddddfji;8isssssssxvvNN@3yyppupppauappaapaMVVZZCvddsddfgi6yadddddddddfji>6isssssssgu&+.@3yyppupppau",
"appaaNvayphBvddddddfj6rhpaaaaaaaaadfu84sgggggggMMMBBg5yyppppppppappaaaaNCCZZZVdddddfji6ypaaaaaaaaadfu3ysgkggggggi4+.#5yypppppppp",
"aapppNMaypaBBvdddddfj6rvyuuuuuuu4411488iggggggvNBBBBv4yyppyupppyaappppsNCZZZZCvddddfji6yyuuuuuuuuuaay36igvggggggs6X o3yyppyupppy",
"aapppNNaypaNBNdxsddfj6;k6yyyyy4<4444888issssssMNBBBBM>uypuppapppaapppasNVZZZZZVvsddfji346yyyyyyyyyuu636isMsssssgs4X o3uypuppappp",
"ppapuNNaypiNNVvMsddfj6ryyuuuuu444uui688issuuscNNVBBBN>y6uuppppapppapuphBBCZZZZCBsddfi6,yyuuuuuuuuuui636isBsssssgs6X o2y6uuppppap",
"pppppNNv%ruNNVBNcaadfy,iisdddddsdsssy88iuuuucMBVCVBNNgyyhuuppapuppppppvBBVZZZZZVmmvdp4riisdddddddsssy36ivBkssssgs5X o>yypuuppapu",
"appppNBBbx4NBZBBMuuaau6isgggggggggggi8riuuxxMBBCZCBNNvyyvpppppppappppuMBBBZZZZZCCCBmb4rasgggggggggggi36iBBvs1ssgs6X o*yypppppppp",
"ppuuuNBBCVbNVZVBBv4<64usaggggggggggi68;xxxMMBVBZZZVBNMyxMpppppppppuuuvBVVBCCZZZZZZBCCvvpsgggggggggghi36mBBMsusvgs6. h*yypppppppp",
"ppupxNBBZCCBCZCVBBc66kuussssssssssgi6xxMMMBBBCVZZZCBNNvMNpppapapppupvBVCCVVVCZZZZZBZZCCmmsssssssssghs3kCBBNkisBvs6+Xm3yyupppapap",
"ppppMNBBZZZVZZZCVVBcbMxxccccccvvvsgvcMMNVBBBVZCZZZZVBNBBNppppapppppvBBCZZVBBVZZZZZVZZZZCCbbsssssssghx3mZBBBvhvBBi5+gV5yypppppapp",
"pupuNNBBCCZCZZZZCCBVCNMMMMMMMMBBBvvBBBBVCBBVCZZZZZZCVBBBBxuupppupupBBBCZZVBBBCCZCCVCZZZZZCCvviiihshxmbBCBBBMvBBBisXmC3yypuuupppu",
"pppvNNBBVVCZZZZCZCBCZBBNBBBBBBBBBBBBBVBCZBVCZZZZZZZZCBBBBMhuappuppvBBBVZCBBBBVVCVVBVZZZCZZZBBvvvvcvmVCBVBBVBMBBBvxxVZbyyppuuappu",
"ppcNNNMNMBVCCCCVCVBZCBBBBBBBBBBBBBBBBCVZCVCZZZZZZCZZZBBBBNvpkppuvcMMMNBCVBBBBBNVBBNBZZCVCCZVVVVBMNMBCZVBBVCBBBBBNmBCZCvyupuppppu",
"asMNNNxxxNBVVVVvVBBZVNBBBBBBBBBBBBBBNVCVVVCZCZCCCVCZZBBBBNMskaasBNcccNBVBBNMNNNBBBBBCCVBVVZVVVVBBBBBCZCBBCZBBBNNNBBCCCNvsasssaas",
"ssxNNvaaavNBBBBpvvvZBNBBBBBvvBBvvBBBNNCBBVVCVCVnVNVCZBNNvMvsssasNvsssvNBBNNxvvcNBBBNBVBvvBCmbVbBBBBBVCCNBCCvBNNNNBBVbVvvssssssas",
"ssavNaaasaMBBBvpuaaCBNBNMvvspNBpaccBNMVNBBBVBVBwcxvVCBNMscsdssssvsassaMBBvcaaapcNBBNMvvaaNVspvpBBNBBNVVMvVVuvxvNNNNM6xpusasdssss",
"saasNassyyxNBByyuuuVBNBNxyyyyNv4444cBNBBBBNMcccu44wcVBNxssaddsaasaassaxNBvyuy6yyMBBNxyyyyNvyyyyvNNBNNBBMrcxwrrwvNNNx>2ppssaddsaa",
"ssssNaaayyuNBByuuyuVBNBMyyyyyNy65544NBBBcMNk44444uw6xNNadsssddsssssssaaNBvuy66yuxBBMyyyyyNyyyyyyNNBMNBNM8580wrwwxNNw<-aadsssddss",
"ppppvupp6yyNNNyyyyyCBNNlyyyyycyy6664vBBk4jm@44444ur7;NvypppupapppppppupNBmy5y,<4yMNlyyyyycyyyyyyvmNzNBNv-u877w7r7Nv62@uypppupapp",
"pppphppp6yymNN66yyyCBNmyyyyyyfyyy666hNB>;0x6--yyayw7;mhypupuuapppppppppNBN44yr>4ybmyupyyyfyyyyuyhcbyNBNh-u777u7r7mg62#uypupuuapp",
"apauupaayy6xNmy6yyaVBNxy6yuyyyyyy6y66NB>O@s6-56ayaq7;xyyppppupppapauupaNVBg,r;r4ybxyppyy6yuyyyyyuhxyNBN64@-77w08#x262#yyppppuppp",
"sapupuaayyyfNvyyyyyBBNfyyyyyy6yuyuyyyNB>-@%u44uyayrq;syyppupppuusapupuaNCBxry7;yymfyyyyyyyyyy6yuyufumBNy6-4-7484#s265>yyppupppuu",
"appppuaa6yyyNxy6yyyBBNyuuyyyu66yy6ypyNB6-X&4466ua47q7#yupppuupupappppuaBCBm:10g%4Nyyyiyuuyyyu66yy6ypcNNpy56-7-44#*-6d#yupppuupup",
"aspppuaayyyyNg66yyyBBNyyuuyyyy6y66yyyNB677-466644r0q7#yypuuppppuaspppudBBBNgaOvg4Ngyyyyyuuyyyy6y66yyfNN66>5>@-45>y-yx#yypuuppppu",
"papppuppyyyyNy64yyuBNNyyuyy6yyy6ypypyNBy774666647r0q7#yypuuapppupappppdBmBBxi;Nx4mxyyyyyuyy6yyy6ypypyNNy6,4*--56>y3,m#yypuuapppu",
"upppppap6yyyMy55yyyNNNyyy666yyupyyuyyNN644yyyyy-7r0egp6ypuuppppuupppppdBhBBmurBmpcb66yyyy666yyupyyuyyNN65>44->6y>p>3N#6ypuuppppu",
"ppppppaayyyym555yiyvBNyyyyyyuyyuuupyyNM444yuyu4-7q9tvg4ypppuppupppppppaN0BBNOOBNihMg66yyyyyyuyyuuupyyNN44-y666yy5p3gBu6ypppuppup",
"pppppuaayyhyv5+r46ygBN6yuyyuuyayyy46yNmr4ypyy447799rNgyyuppppuuppppppuam$BBB00NNiimlh6yyyyyuuyayyy66yNm644pyyyyy6p5xVgyyuppppuup",
"pappppapyyvgx4@946>4BN56yyyyyyypauyyyNc446yyy4-r777,BiyypppppppppappppaxONBB09vNy5bxchi66yyyyyypauyyyNv546yyyyyy556vCgyypppppppp",
"appaapaayyNxh:-w43-3BM466uyyyyypuuuyyNfyyuyyy--r7097B#yupppuppppappaapad0vBBr9hN;7xkmci24456yyypuuuyyNx66uyyyyyy256cCiyupppupppp",
"uapapppayyBmiO-w07r4Bm4yyyyiyiyyyuuy<Nyp444y77rq009rB#yyppppiappuapappp57hBBOqqN77ggNmu7;8446yyyyuuy6Ngyyyyy66y6555hC@yyppppaapp",
"pppppyaay5BN-O-7q07-Nb74444<4yy6yuuy6Nyy4<4777O079r7B#yyppppppuppppppya57qBB09em7777NN777;8466yyyuuy6Nyyypy66656556yV@yyppppppup",
"ppyyyyaa44NN7-77q7r2Nb74r,444444444<rMr,4O--77rrrrr2B#yyyypsayppppyyyya57wBNq7Ox8877NN777884444yyyyy6N6yy6yy6yu5&56yB&yyyypsaypp",
"ayy6yyaa48mN,r777---Nm-<,<4u44444,4,rN$;rr4--67777rrN#yyyuuuuyyuayy6yya4@7BN,77gu@@@NNo---4<<<4yy5yy6N5666yyyy6*-&66N@yyyuuuuyyu"
};
